# xmcd
#
# Track frame offsets: 
#        150
#        16685
#        37180
#        51617
#        72052
#        89405
#        105757
#        124480
#        146487
#        164750
#        186382
#
# Disc length: 2701 seconds
#
# Revision: 0
# Processed by: cddbd v1.5.2PL0 Copyright (c) Steve Scherf et al.
# Submitted via: ExactAudioCopy v0.99pb5
#
DISCID=9e0a8b0b
DTITLE=Indigenous - the acoustic sessions
DYEAR=2010
DGENRE=Blues
TTITLE0=now that you're gone
TTITLE1=things we do
TTITLE2=little time
TTITLE3=rest of my days
TTITLE4=want you to stay
TTITLE5=fool me again
TTITLE6=come on home
TTITLE7=leaving
TTITLE8=should i stay
TTITLE9=eyes of a child
TTITLE10=you got it
EXTD=
EXTT0=
EXTT1=
EXTT2=
EXTT3=
EXTT4=
EXTT5=
EXTT6=
EXTT7=
EXTT8=
EXTT9=
EXTT10=
PLAYORDER=
